#N canvas 160 25 1036 847 12;
#X declare -lib Gem;
#X obj 230 387 osc~;
#X obj 230 300 mtof;
#X msg 387 106 65;
#X obj 317 371 vline~;
#X obj 230 446 *~;
#X obj 134 29 tgl 19 0 empty empty empty 0 -10 0 12 #fcfcfc #000000
#000000 0 1;
#X obj 230 735 out~;
#X msg 316 333 0 5 \, 0.8 2 0 \, 0 1000 2;
#X msg 444 105 72;
#X msg 505 105 63;
#X obj 250 122 random 12;
#X obj 230 618 *~ 0.4;
#X obj 281 570 *~ 0.5;
#X obj 249 62 metro;
#X obj 508 474 + 100;
#X obj 387 559 delread~ delayL;
#X floatatom 575 472 5 0 0 0 - - - 0;
#X obj 282 523 delwrite~ delayL 2000;
#X obj 640 430 * 3;
#X obj 714 578 delwrite~ delayR 2000;
#X obj 557 567 delread~ delayR;
#X obj 557 608 *~ 0.4;
#X obj 693 671 *~ 0.5;
#X obj 522 430 * 2.5;
#X obj 251 177 sel 0 1 2 3;
#X msg 564 102 75;
#X msg 342 40 340;
#X obj 370 255 +;
#X msg 725 204 2;
#X msg 733 247 0;
#X obj 675 94 metro 3000;
#X obj 733 133 random 6;
#X obj 698 174 sel 0;
#X obj 781 211 sel 1;
#X obj 806 270 sel 2;
#X obj 554 666 reverb~;
#X obj 230 681 reverb~;
#X msg 422 620 0.3;
#X obj 422 591 loadbang;
#X msg 793 308 -3;
#X floatatom 384 289 5 0 0 0 - - - 0;
#X obj 1004 182 gemwin;
#X msg 974 80 create \, 1;
#X msg 1068 81 0 \, destroy;
#X msg 1084 134 dimen 1280 720;
#X obj 997 0 declare -lib Gem;
#X obj 906 31 loadbang;
#X obj 1055 286 gemhead;
#X obj 1223 387 part_head;
#X obj 1223 603 part_render;
#X obj 1230 721 circle;
#X obj 962 371 loadbang;
#X obj 1223 567 part_color;
#X obj 797 62 b;
#X obj 1222 657 translateXYZ;
#X obj 1397 456 random 200;
#X obj 1397 494 / 100;
#X obj 1397 532 -1;
#X obj 1223 459 part_velocity;
#X obj 977 480 bng 15 250 50 0 empty empty empty 17 7 0 10 #fcfcfc
#000000 #000000;
#X symbolatom 839 544 10 0 0 0 - - - 0;
#X msg 845 484 set blob;
#X msg 941 574 0 0 0 0.5;
#X obj 1223 531 part_killold 6;
#X msg 1105 589 draw fill;
#X msg 895 139 color 1 1 1;
#X obj 1223 495 part_source 40;
#X obj 1223 423 part_size 4;
#X msg 1109 692 0 0.8 0.7;
#X obj 1056 335 rotateXYZ;
#X obj 1207 308 line;
#X obj 1290 308 line;
#X obj 1383 310 line;
#X msg 1020 692 0 0.4 0.5;
#X msg 937 694 0 0.4 0.3;
#X obj 1023 638 sel 0 1 2;
#X obj 1023 615 random 6;
#X msg 1223 351 speed 0.04;
#X obj 925 433 t b b;
#X text 852 418 domain;
#X msg 683 351 \; param1 0 \; param2 10000 \; param3 4637 \; param4
0.97 \; param5 0.8 \; param6 0.8 \; param7 0.8 \; param8 0.8 \; param9
0.53761 \;;
#X msg 1207 277 \$1 10000;
#X msg 1290 284 \$1 10000;
#X msg 1382 277 \$1 10000;
#X obj 1206 228 random 60;
#X obj 1289 228 random 200;
#X obj 1289 256 - 100;
#X floatatom 1338 361 5 0 0 0 - - - 0;
#X obj 1378 228 random 80;
#X obj 1388 254 - 40;
#X obj 1223 254 - 40;
#X msg 1368 656 1.2;
#X msg 1217 76 frame 60;
#X text 55 28 Play/Stop;
#X connect 0 0 4 0;
#X connect 1 0 0 0;
#X connect 1 0 7 0;
#X connect 2 0 27 0;
#X connect 3 0 4 1;
#X connect 4 0 11 0;
#X connect 4 0 17 0;
#X connect 4 0 19 0;
#X connect 5 0 26 0;
#X connect 5 0 13 0;
#X connect 5 0 30 0;
#X connect 7 0 3 0;
#X connect 8 0 27 0;
#X connect 9 0 27 0;
#X connect 10 0 24 0;
#X connect 11 0 36 0;
#X connect 12 0 17 0;
#X connect 13 0 10 0;
#X connect 15 0 12 0;
#X connect 15 0 11 0;
#X connect 18 0 20 0;
#X connect 20 0 21 0;
#X connect 20 0 22 0;
#X connect 21 0 35 0;
#X connect 22 0 19 0;
#X connect 23 0 14 0;
#X connect 23 0 16 0;
#X connect 23 0 15 0;
#X connect 24 0 2 0;
#X connect 24 1 8 0;
#X connect 24 2 9 0;
#X connect 24 3 25 0;
#X connect 25 0 27 0;
#X connect 26 0 13 1;
#X connect 26 0 18 0;
#X connect 26 0 23 0;
#X connect 27 0 1 0;
#X connect 27 0 40 0;
#X connect 27 0 53 0;
#X connect 28 0 27 1;
#X connect 29 0 27 1;
#X connect 30 0 31 0;
#X connect 31 0 32 0;
#X connect 31 0 33 0;
#X connect 31 0 34 0;
#X connect 32 0 28 0;
#X connect 33 0 29 0;
#X connect 34 0 39 0;
#X connect 35 0 6 1;
#X connect 36 0 6 0;
#X connect 37 0 36 2;
#X connect 37 0 35 2;
#X connect 38 0 37 0;
#X connect 38 0 80 0;
#X connect 39 0 27 1;
#X connect 42 0 41 0;
#X connect 43 0 41 0;
#X connect 44 0 41 0;
#X connect 46 0 42 0;
#X connect 46 0 65 0;
#X connect 46 0 92 0;
#X connect 47 0 69 0;
#X connect 48 0 67 0;
#X connect 49 0 54 0;
#X connect 51 0 68 0;
#X connect 51 0 77 0;
#X connect 51 0 91 0;
#X connect 51 0 64 0;
#X connect 51 0 78 0;
#X connect 52 0 49 0;
#X connect 53 0 55 0;
#X connect 53 0 76 0;
#X connect 53 0 84 0;
#X connect 53 0 85 0;
#X connect 53 0 88 0;
#X connect 54 0 50 0;
#X connect 55 0 56 0;
#X connect 56 0 57 0;
#X connect 57 0 54 1;
#X connect 57 0 54 2;
#X connect 57 0 54 3;
#X connect 58 0 66 0;
#X connect 59 0 62 0;
#X connect 59 0 60 0;
#X connect 60 0 58 1;
#X connect 61 0 60 0;
#X connect 62 0 58 2;
#X connect 63 0 52 0;
#X connect 64 0 50 0;
#X connect 65 0 41 0;
#X connect 66 0 63 0;
#X connect 67 0 58 0;
#X connect 68 0 52 1;
#X connect 69 0 48 0;
#X connect 70 0 69 1;
#X connect 71 0 69 2;
#X connect 71 0 87 0;
#X connect 72 0 69 3;
#X connect 73 0 52 1;
#X connect 74 0 52 1;
#X connect 75 0 74 0;
#X connect 75 1 73 0;
#X connect 75 2 68 0;
#X connect 76 0 75 0;
#X connect 77 0 48 0;
#X connect 78 0 59 0;
#X connect 78 1 61 0;
#X connect 80 0 35 3;
#X connect 80 0 36 3;
#X connect 81 0 70 0;
#X connect 82 0 71 0;
#X connect 83 0 72 0;
#X connect 84 0 90 0;
#X connect 85 0 86 0;
#X connect 86 0 82 0;
#X connect 88 0 89 0;
#X connect 89 0 83 0;
#X connect 90 0 81 0;
#X connect 91 0 50 1;
#X connect 92 0 41 0;
