#N canvas 57 78 1383 794 12;
#X obj 386 327 dac~;
#X obj 386 186 *~;
#X obj 386 139 inlet~;
#X obj 483 139 inlet~;
#X obj 483 186 *~;
#X obj 110 107 hsl 40 15 0 0.8 0 0 empty empty empty -2 -10 0 12 #fcfcfc
#000000 #000000 0 1;
#X msg 108 205 \; pd dsp 1;
#X obj 386 280 clip~ -1 1;
#X obj 483 280 clip~ -1 1;
#X obj 386 233 hip~ 3;
#X obj 483 233 hip~ 3;
#X text 382 15 stereo DAC;
#X obj 215 183 pack 0 50;
#X obj 215 230 line~;
#X text 207 267 ramp to avoid clicks;
#X obj 187 22 loadbang;
#X msg 187 53 0.6;
#X connect 1 0 9 0;
#X connect 2 0 1 0;
#X connect 3 0 4 0;
#X connect 4 0 10 0;
#X connect 5 0 12 0;
#X connect 5 0 6 0;
#X connect 7 0 0 0;
#X connect 8 0 0 1;
#X connect 9 0 7 0;
#X connect 10 0 8 0;
#X connect 12 0 13 0;
#X connect 13 0 1 1;
#X connect 13 0 4 1;
#X connect 15 0 16 0;
#X connect 16 0 5 0;
#X coords 0 -1 1 1 60 30 2 100 100;
